<?xml version="1.0" standalone="no"?>
<!DOCTYPE svg PUBLIC "-//W3C//DTD SVG 20010904//EN"
 "http://www.w3.org/TR/2001/REC-SVG-20010904/DTD/svg10.dtd">
<svg version="1.0" xmlns="http://www.w3.org/2000/svg"
 width="2000.000000pt" height="2000.000000pt" viewBox="0 0 2000.000000 2000.000000"
 preserveAspectRatio="xMidYMid meet">
<metadata>
Created by potrace 1.14, written by Peter Selinger 2001-2017
</metadata>
<g transform="translate(0.000000,2000.000000) scale(0.100000,-0.100000)"
fill="#000000" stroke="none">
<path d="M11119 17188 c-1 -5 -8 -4456 -12 -8470 -3 -2106 -1 -3828 3 -3828 3
0 38 15 76 34 69 33 148 70 254 119 30 14 98 45 150 70 52 24 120 56 150 70
30 14 113 52 183 86 71 34 130 61 132 61 2 0 63 28 137 63 73 35 271 128 439
206 l305 143 3 2166 c1 1192 4 3768 6 5725 l5 3557 -915 0 c-503 0 -915 -1
-916 -2z"/>
<path d="M14197 17178 c-9 -5 -12 -958 -11 -4045 1 -2221 2 -4041 3 -4044 0
-3 394 -6 874 -7 479 0 1620 -2 2535 -3 914 -1 1665 1 1668 4 6 6 6 434 -1
1467 -3 489 -15 2744 -18 3373 l-2 247 -75 0 c-204 1 -852 -2 -1340 -6 -300
-3 -696 -6 -880 -7 l-335 -3 0 -914 0 -915 413 1 c368 0 412 -1 412 -15 1 -19
0 -207 -5 -746 -2 -225 -4 -471 -4 -546 l-1 -136 -362 -2 c-200 -1 -527 -3
-728 -4 l-364 -2 1 150 c1 207 13 1941 19 2905 3 437 6 933 7 1103 l2 307
1600 -2 1600 -3 1 55 c1 30 5 441 9 913 l6 857 -243 0 c-134 1 -565 3 -958 5
-393 2 -1381 6 -2195 10 -814 4 -1511 8 -1548 8 -38 1 -74 -1 -80 -5z"/>
<path d="M4264 14028 l0 -3153 -609 2 c-336 1 -662 2 -725 2 l-115 1 -2 1613
c-1 886 -2 1624 -3 1638 l0 25 -172 1 c-95 1 -500 4 -900 7 -590 6 -728 4
-729 -6 -4 -54 -21 -3157 -23 -4238 l-1 -845 2215 2 c1218 1 2358 2 2533 3
l317 0 0 4050 0 4050 -893 0 -893 0 0 -3152z"/>
<path d="M7354 12365 c3 -2640 6 -5216 6 -5723 l1 -924 257 -125 c141 -69 329
-160 417 -203 408 -198 516 -250 745 -362 333 -163 330 -161 337 -155 3 4 5
280 4 614 0 334 -3 3097 -7 6138 -3 3042 -8 5532 -11 5535 -2 3 -398 5 -879 5
l-875 0 5 -4800z"/>
<path d="M957 7022 c0 -488 1 -893 2 -899 1 -10 339 -13 1657 -13 l1656 0 -6
-937 c-3 -516 -6 -1032 -7 -1146 -1 -115 3 -212 7 -217 5 -4 207 -108 449
-230 420 -213 675 -342 1390 -705 176 -89 500 -254 720 -365 220 -111 531
-269 690 -350 271 -138 506 -257 1330 -675 182 -92 336 -172 343 -177 6 -6 12
-7 12 -3 0 4 6 3 13 -3 6 -5 221 -116 477 -245 l465 -236 85 45 c47 25 141 75
210 111 133 70 244 129 375 198 44 23 134 71 200 105 66 34 138 73 160 85 22
12 108 58 190 101 83 43 182 95 220 115 76 40 132 70 331 174 71 37 156 82
189 100 33 18 119 63 190 100 72 37 144 75 160 85 17 9 102 55 190 100 88 46
165 86 170 90 6 4 82 44 170 90 88 45 183 95 210 110 28 15 109 58 180 95 72
37 157 82 190 100 33 18 119 63 190 100 72 37 157 83 190 100 33 18 107 57
165 88 175 91 281 147 365 192 44 23 139 73 210 110 72 37 144 75 160 85 17 9
98 52 180 95 83 43 164 85 180 95 17 9 93 50 170 90 77 40 163 85 190 100 28
15 113 60 190 100 77 40 142 74 144 77 3 2 6 106 7 231 6 478 17 1557 18 1784
l1 238 55 1 c30 0 758 0 1618 0 l1562 0 1 142 c1 78 2 192 4 252 2 96 11 527
20 990 2 83 4 188 5 235 1 47 1 96 1 110 l-1 25 -512 -2 c-282 -1 -1411 -5
-2508 -8 -1097 -4 -1996 -8 -1998 -9 -2 -3 -6 -182 -17 -801 -7 -406 -15 -818
-20 -1075 -2 -124 -7 -403 -11 -620 -3 -217 -8 -398 -10 -402 -2 -3 -37 -23
-76 -43 -40 -21 -113 -59 -163 -85 -99 -52 -267 -139 -480 -250 -77 -40 -189
-98 -250 -130 -60 -32 -171 -89 -245 -128 -278 -144 -399 -207 -540 -280 -80
-41 -185 -96 -235 -122 -49 -26 -166 -87 -260 -135 -93 -48 -201 -104 -240
-125 -38 -21 -142 -75 -230 -120 -88 -46 -209 -109 -270 -140 -103 -53 -175
-91 -525 -273 -74 -38 -175 -91 -225 -117 -49 -26 -131 -68 -182 -94 l-92 -47
-133 69 c-73 38 -227 118 -343 177 -304 156 -559 287 -730 375 -82 43 -244
126 -360 185 -207 106 -415 213 -750 385 -93 48 -255 131 -360 185 -104 54
-266 137 -360 185 -196 101 -435 223 -790 405 -137 70 -254 131 -259 135 -8 8
-8 97 0 1210 2 366 6 907 8 1203 l3 537 -2541 0 -2541 0 2 -888z"/>
</g>
</svg>
